<?xml version="1.0" encoding="utf-8"?>
<!-- Generator: Adobe Illustrator 28.1.0, SVG Export Plug-In . SVG Version: 6.00 Build 0)  -->
<svg version="1.1" id="Capa_1" xmlns="http://www.w3.org/2000/svg" xmlns:xlink="http://www.w3.org/1999/xlink" x="0px" y="0px"
	 viewBox="0 0 234.6 55.4" style="enable-background:new 0 0 234.6 55.4;" xml:space="preserve">
<style type="text/css">
	.st0{display:none;}
	.st1{fill:#14315C;}
	.st2{fill:#2F4270;}
</style>
<g id="Capa_2_00000054238655250806592880000001974574991634376124_" class="st0">
</g>
<g id="Capa_1_00000080205518989627630960000000281860296570436267_">
	<g>
		<g>
			<path class="st1" d="M19.1,52.4C19,52,20,51.1,20.2,50.3c0.3-1.2,0.5-2.6-1.9-2c-2.5,0.8-1.5,2.9-0.9,3.8
				c0.7,0.9,0.3,1.6-0.1,2.3c-0.4,0.5,0.8,1.2,1.6,0.9c0.7-0.1,1.5-0.7,1.7-1.2C21,53.6,19.2,52.8,19.1,52.4z M18.8,51
				c-0.3,0.3-0.5,0.7-0.8,0.3c0,0-0.8-1.3,0-1.7c1.1-0.5,1.2,0,1.2,0.3C19.2,50.3,19,50.8,18.8,51z M23.3,25.7
				c0.3,0.1,0.5,0,0.7-0.3c0.4-0.7,0.1-3.6,0-4.1s-0.3-0.7-0.5-0.7s-0.3,0.3-0.3,0.5l-0.4,3.4C22.8,25.1,23.1,25.5,23.3,25.7z
				 M28.8,48.4c-0.1-0.4,0.9-1.3,1.1-2.1c0.3-1.2,0.5-2.6-1.9-2c-2.5,0.8-1.5,2.9-0.9,3.8c0.7,0.9,0.3,1.6-0.1,2.3
				c-0.4,0.5,0.8,1.2,1.6,0.9c0.7-0.1,1.5-0.7,1.7-1.2C30.6,49.6,28.9,48.8,28.8,48.4z M28.6,47c-0.3,0.3-0.5,0.7-0.8,0.3
				c0,0-0.8-1.3,0-1.7c1.1-0.5,1.2,0,1.2,0.3C29,46.3,28.8,46.7,28.6,47z M37.6,44.9c-0.1-0.4,0.9-1.3,1.1-2.1
				c0.3-1.2,0.5-2.6-1.9-2c-2.5,0.8-1.5,2.9-0.9,3.8c0.7,0.9,0.3,1.6-0.1,2.3c-0.4,0.5,0.8,1.2,1.6,0.9c0.7-0.1,1.5-0.7,1.7-1.2
				C39.5,46.1,37.8,45.1,37.6,44.9z M37.4,43.3c-0.3,0.3-0.5,0.7-0.8,0.3c0,0-0.8-1.3,0-1.7c1.1-0.5,1.2,0,1.2,0.3
				C37.9,42.6,37.6,43.1,37.4,43.3z M61.6,24.5c0,0-0.1-0.1-0.4,0c-0.3,0.1-6.6,2.8-14.6,6.1C36.4,34.8,23,40.3,13.5,44.4
				c-2.1-1.2-4.1-2.4-5.8-4.2c0.5,0.3,1.1,0.4,1.6,0.5c6.4,1.7,14-1.6,17.2-3.6c4.4-2.8,8.6-6.9,9.8-9.1c0.8-1.5,0.8-2.6,0.4-3.7
				c0.8-0.5,1.9-1.7,2.1-3.3c0.1-1.2,0-2.1-0.3-2.8c0.9-1.3,4.5-6.9,5.2-8.9c0.3-0.8,0.3-2-0.1-3c0,0,0,0,0-0.1
				c0.4-0.8,0.5-1.9,0.1-2.8c-0.4-1.2-1.3-2.3-2.5-2.8c-2-1.1-4.6-0.4-5.7,1.5c-0.3,0.5-0.4,1.1-0.3,1.7l0,0c0,0-2.6,3.6-7.7,5.7
				c-5.2,2.1-9.8,2.3-9.8,2.3h-0.1c-0.3-0.4-0.5-0.9-0.9-1.3C15.4,9,13.5,8.1,11.5,8c-2-0.1-4,0.5-5.4,1.9s-2.4,3.2-2.5,5.2
				c-0.1,1.6,0.3,3,1.1,4.2C3,21.4,0.3,26.6,1.8,32.6c1.9,7.2,5.7,10.2,9.7,12.4C5.8,47.4,2,49.1,1.4,49.4C0,50.2-0.1,51,0,51.5
				c0.1,0.4,0.5,0.5,1.1,0.4C3.4,51,55.3,30.6,57.5,29.2C59.4,28.3,61.9,25,61.6,24.5z M37.3,2.9c0.5-1.1,2-1.3,3.3-0.7
				c0.8,0.4,1.3,1.1,1.6,1.7c0,0.1,0,0.1,0,0.3c-0.3-0.3-0.7-0.5-1.2-0.7c-1.5-0.5-2.8-0.5-3.8,0C37.1,3.3,37.3,3,37.3,2.9z
				 M36.5,6.7c0.3-0.7,1.3-2.3,3.8-1.3c1.7,0.7,2,2.5,1.7,3.4c-0.4,1.5-2.9,5.3-4.5,7.8c0,0,0,0-0.1-0.1c-0.5-0.7-0.9-2-1.1-2.6
				c0-0.5-0.3-1.2-0.8-1.6C35.7,10.8,35.9,8.1,36.5,6.7z M34.5,13.7c0,1.1,0.7,2.9,1.5,3.8c0.9,1.2,1.3,1.7,1.1,3.2
				c-0.1,0.8-0.7,1.5-1.2,1.9c-0.1-0.1-0.3-0.3-0.3-0.3c-0.4-0.4-0.9-0.8-1.5-0.9l0,0c-0.9-1.2-1.6-3-1.6-3.8
				c-0.1-0.8,0.1-2.6,1.3-3.7c0.3-0.1,0.4-0.3,0.5-0.3C34.3,13.6,34.5,13.7,34.5,13.7z M28.2,11.1c2.6-1.1,4.6-2.5,6.1-3.7
				c-0.4,1.5-0.5,3.2-0.7,4.2c-0.4,0.1-0.9,0.4-1.3,0.7c-0.8,0.7-1.2,1.5-1.6,2.4c-0.3,0.1-0.5,0.3-0.8,0.4c-2.6,1.3-6.6,2-6.6,2
				l0.3,1.9c0.1,0,3.7-0.7,6.6-2c0,0.3,0,0.4,0,0.7c0.1,0.8,0.4,2.1,1.2,3.4c-0.4,0.1-0.8,0.3-1.1,0.5l-0.9,0.9
				c-1.2,1.2-3.2,3-6.5,5.4c-0.4,0.3-0.8,0.5-1.3,0.8c-0.3-1.5-0.7-4.4-1.1-6.1c-0.4-2-1.9-7.5-2.3-9.3C20.2,13.4,24,12.8,28.2,11.1
				z M5.9,14.9c0.1-1.5,0.7-2.6,1.7-3.6S10,9.9,11.4,10c2.9,0.1,5.2,2.6,5,5.6c-0.1,2.9-2.6,5.2-5.6,4.9C8,20.4,5.7,17.9,5.9,14.9z
				 M4.1,34.3L4.1,34.3c-0.3-0.7-0.4-1.3-0.7-2c-1.2-4.8,0.8-9.1,2.3-11.5c1.2,1.2,2.9,2,4.8,2.1c3.2,0.1,6.1-1.7,7.3-4.5
				c0.3,1.3,0.7,2.6,0.9,3.4c-0.4-0.5-0.9-1.1-1.2-0.7c-0.4,0.8-0.8,1.6-1.9,1.7c-2.5,0.1-3.7,0.4-2.5,2.5c1.3,2.1,2.5,1.2,2.8,0.3
				c0.3-0.8,0.5-1.7,0.8-1.9c0.4-0.1,2.1,0.7,2.4,0.1c0.3,1.7,0.8,4.8,0.9,5.7c-0.7,0.3-1.2,0.4-1.7,0.5c-0.5-0.3-2.1-1.1-3.7-2
				c-1.5-0.8-2.8-1.9-3.7-2.5l-0.7-0.4c-0.4-0.3-0.7-0.1-0.8,0c0,0.1-0.1,0.1-0.1,0.3c0,0.3,0.1,0.5,0.4,0.8l0.3,0.3
				c0.9,0.8,3.3,3,5,4.1c-1.9,0.1-3.2,0-3.2,0l-0.3,1.9c0.3,0,6.9,0.9,12.3-3c3.4-2.4,5.4-4.4,6.6-5.6l0.8-0.8
				c0.4-0.4,1.7-0.3,2.4,0.5c0.9,1.1,1.5,2,0.7,3.3c-0.9,1.7-4.8,5.6-9.1,8.3c-3.4,2.1-10.5,4.8-15.8,3.3C7.2,38,5.3,36.5,4.1,34.3z
				"/>
		</g>
	</g>
</g>
<g>
	<g>
		<path class="st2" d="M91.3,38.4c1.2,0,2,0.1,2.8,0.8c0.8,0.8,1.1,1.8,1.1,2.5c0,0.4-0.1,1.5-0.9,2.3c-0.6,0.6-1.4,0.9-2.7,0.9
			h-1.3v3.9h-2V38.4H91.3z M90.3,43.2h0.8c0.4,0,0.9,0,1.3-0.3c0.4-0.3,0.6-0.8,0.6-1.2c0-0.6-0.3-1-0.6-1.2c-0.4-0.3-1-0.3-1.4-0.3
			h-0.7V43.2z"/>
		<path class="st2" d="M100.3,38.4V45c0,0.8,0.3,1.3,0.5,1.6c0.3,0.4,0.8,0.7,1.7,0.7s1.4-0.4,1.7-0.7c0.2-0.3,0.5-0.8,0.5-1.6v-6.6
			h2v6.4c0,1-0.2,2-0.8,2.8c-0.8,1-2.1,1.5-3.4,1.5s-2.7-0.5-3.4-1.5c-0.6-0.8-0.8-1.8-0.8-2.8v-6.4H100.3z"/>
		<path class="st2" d="M110.6,48.9V38.4h1.4l6.4,7v-7h2v10.5H119l-6.4-7v7H110.6z"/>
		<path class="st2" d="M127.7,40.2v8.7h-2v-8.7h-2.4v-1.8h6.7v1.8H127.7z"/>
		<path class="st2" d="M138.4,46.7h-4.2l-0.9,2.2h-2.2l4.5-10.5h1.6l4.4,10.5h-2.2L138.4,46.7z M137.8,45l-1.5-3.8l-1.5,3.8H137.8z"
			/>
		<path class="st2" d="M152.3,38.4c1.5,0,2.7,0.2,3.9,1c1.3,1,2,2.5,2,4.2s-0.7,3.2-2.1,4.2c-1.2,0.9-2.4,1-3.8,1h-2.7V38.4H152.3z
			 M151.6,47.1h0.6c0.5,0,1.6,0,2.6-0.7c0.8-0.6,1.3-1.7,1.3-2.8c0-1.1-0.5-2.2-1.3-2.8c-0.8-0.6-1.9-0.7-2.6-0.7h-0.6V47.1z"/>
		<path class="st2" d="M167.5,40.2h-3.8v2.3h3.6v1.8h-3.6v2.9h3.8v1.8h-5.8V38.4h5.8V40.2z"/>
		<path class="st2" d="M173,38.4v8.7h3.2v1.8H171V38.4H173z"/>
		<path class="st2" d="M190.3,40.2h-3.8v2.3h3.6v1.8h-3.6v2.9h3.8v1.8h-5.8V38.4h5.8V40.2z"/>
		<path class="st2" d="M199,40.8c-0.6-0.8-1.3-0.9-1.7-0.9c-1.1,0-1.4,0.7-1.4,1.2c0,0.3,0.1,0.5,0.3,0.7c0.3,0.2,0.6,0.4,1.3,0.6
			c0.8,0.3,1.6,0.6,2.1,1.1c0.5,0.4,0.9,1.1,0.9,2.2c0,2-1.5,3.4-3.6,3.4c-1.9,0-3.1-1.2-3.6-2l1.3-1.3c0.5,1,1.5,1.4,2.2,1.4
			c0.9,0,1.6-0.6,1.6-1.4c0-0.4-0.1-0.7-0.4-0.9c-0.4-0.4-1-0.6-1.6-0.8c-0.5-0.2-1.2-0.4-1.7-0.9c-0.3-0.3-0.8-0.9-0.8-1.9
			c0-1.5,1-3.1,3.4-3.1c0.7,0,1.9,0.1,3,1.2L199,40.8z"/>
		<path class="st2" d="M206.9,40.2v8.7h-2v-8.7h-2.4v-1.8h6.7v1.8H206.9z"/>
		<path class="st2" d="M217.9,40.2h-3.8v2.3h3.6v1.8h-3.6v2.9h3.8v1.8h-5.8V38.4h5.8V40.2z"/>
	</g>
</g>
<g>
	<g>
		<path class="st2" d="M90.5,23.5l3.1,3.1c-2.2,2.3-5,3.5-8.6,3.5c-6.7,0-12.1-5-12.1-12.6c0-7.6,5.3-12.6,12.1-12.6
			c3.6,0,6.5,1.3,8.6,3.5l-3.1,3.1C89.1,10,87.2,9.2,85,9.2c-4.4,0-7.7,3-7.7,8.2c0,5.3,3.4,8.3,7.7,8.3
			C87.1,25.7,89.1,25,90.5,23.5z"/>
	</g>
	<g>
		<path class="st2" d="M103.7,29.8h-4.4V5.1h4.4V29.8z"/>
	</g>
	<g>
		<path class="st2" d="M116,24.2v5.6h-4.4V5.1h9.6c5.3,0,9.6,4,9.6,9.6c0,5.6-4.3,9.6-9.6,9.6H116z M116,9.5v10.3h5.2
			c2.9,0,5.2-2,5.2-5.2c0-3.2-2.3-5.2-5.2-5.2H116z"/>
	</g>
	<g>
		<path class="st2" d="M150.1,23l5,6.8h-5.4l-4.2-5.5h-4.7v5.5h-4.4V5.1h9.6c5.3,0,9.6,4,9.6,9.6C155.6,21.3,150.1,23,150.1,23z
			 M140.9,9.5v10.3h5.2c2.9,0,5.2-2,5.2-5.2c0-3.2-2.3-5.2-5.2-5.2H140.9z"/>
	</g>
	<g>
		<path class="st2" d="M166.7,29.8h-4.4V5.1h4.4V29.8z"/>
	</g>
	<g>
		<path class="st2" d="M171.5,20h6.4l5.4-14.9h4.6l8.9,24.7h-4.5l-2-5.7h-9.4l-2,5.7h-4.5l2-5.7h-4.9V20z M185.5,11.1l-3.2,9h6.5
			L185.5,11.1z"/>
	</g>
	<g>
		<path class="st2" d="M216.6,5.1h4.3v24.7h-5.9L206,11.7v18.1h-4.3V5.1h5.9l9.1,18.1V5.1z"/>
	</g>
	<g>
		<path class="st2" d="M232.9,29.8h-4.4V5.1h4.4V29.8z"/>
	</g>
</g>
</svg>
